<?xml version="1.0" encoding="UTF-8" standalone="no"?>
<!-- Created with Inkscape (http://www.inkscape.org/) -->

<svg
   xmlns:dc="http://purl.org/dc/elements/1.1/"
   xmlns:cc="http://creativecommons.org/ns#"
   xmlns:rdf="http://www.w3.org/1999/02/22-rdf-syntax-ns#"
   xmlns:svg="http://www.w3.org/2000/svg"
   xmlns="http://www.w3.org/2000/svg"
   xmlns:sodipodi="http://sodipodi.sourceforge.net/DTD/sodipodi-0.dtd"
   xmlns:inkscape="http://www.inkscape.org/namespaces/inkscape"
   width="297mm"
   height="210mm"
   viewBox="0 0 297 210"
   version="1.1"
   id="SVGRoot"
   sodipodi:docname="1.svg"
   inkscape:version="0.92.3 (2405546, 2018-03-11)">
  <sodipodi:namedview
     id="base"
     pagecolor="#ffffff"
     bordercolor="#666666"
     borderopacity="1.0"
     inkscape:pageopacity="0.0"
     inkscape:pageshadow="2"
     inkscape:zoom="0.49497475"
     inkscape:cx="373.32782"
     inkscape:cy="388.93719"
     inkscape:document-units="mm"
     inkscape:current-layer="layer1"
     showgrid="false"
     inkscape:window-width="1920"
     inkscape:window-height="1001"
     inkscape:window-x="-9"
     inkscape:window-y="-9"
     inkscape:window-maximized="1" />
  <defs
     id="defs164" />
  <metadata
     id="metadata167">
    <rdf:RDF>
      <cc:Work
         rdf:about="">
        <dc:format>image/svg+xml</dc:format>
        <dc:type
           rdf:resource="http://purl.org/dc/dcmitype/StillImage" />
        <dc:title />
      </cc:Work>
    </rdf:RDF>
  </metadata>
  <g
     id="layer1"
     inkscape:groupmode="layer"
     inkscape:label="Calque 1">
    <path
       d="m 18.660948,38.06819 a 15.24,15.24 0 1 0 0,30.48 15.24,15.24 0 1 0 0,-30.48 z"
       style="fill:none;stroke:#333333;stroke-width:0.18520834"
       id="path1894"
       inkscape:export-filename="C:\Users\afx\Downloads\Nouveau dossier\outline.png"
       inkscape:export-xdpi="96"
       inkscape:export-ydpi="96"
       inkscape:connector-curvature="0" />
    <path
       d="m 18.660948,70.83419 a 15.24,15.24 0 1 0 0,30.48 15.24,15.24 0 1 0 0,-30.48 z"
       style="fill:none;stroke:#333333;stroke-width:0.18520834"
       id="path1896"
       inkscape:export-filename="C:\Users\afx\Downloads\Nouveau dossier\outline.png"
       inkscape:export-xdpi="96"
       inkscape:export-ydpi="96"
       inkscape:connector-curvature="0" />
    <path
       d="m 18.660948,104.10819 a 15.24,15.24 0 1 0 0,30.48 15.24,15.24 0 1 0 0,-30.48 z"
       style="fill:none;stroke:#333333;stroke-width:0.18520834"
       id="path1898"
       inkscape:export-filename="C:\Users\afx\Downloads\Nouveau dossier\outline.png"
       inkscape:export-xdpi="96"
       inkscape:export-ydpi="96"
       inkscape:connector-curvature="0" />
    <path
       d="m 18.660948,137.38219 a 15.24,15.24 0 1 0 0,30.48 15.240001,15.240001 0 1 0 0,-30.48 z"
       style="fill:none;stroke:#333333;stroke-width:0.18520834"
       id="path1900"
       inkscape:export-filename="C:\Users\afx\Downloads\Nouveau dossier\outline.png"
       inkscape:export-xdpi="96"
       inkscape:export-ydpi="96"
       inkscape:connector-curvature="0" />
    <path
       d="m 18.660948,171.67219 a 15.24,15.24 0 1 0 0,30.48 15.24,15.24 0 1 0 0,-30.48 z"
       style="fill:none;stroke:#333333;stroke-width:0.18520834"
       id="path1902"
       inkscape:export-filename="C:\Users\afx\Downloads\Nouveau dossier\outline.png"
       inkscape:export-xdpi="96"
       inkscape:export-ydpi="96"
       inkscape:connector-curvature="0" />
    <path
       d="m 54.982949,4.2861872 a 15.24,15.24 0 1 0 0,30.4799998 15.24,15.24 0 1 0 0,-30.4799998 z"
       style="fill:none;stroke:#333333;stroke-width:0.18520834"
       id="path1904"
       inkscape:export-filename="C:\Users\afx\Downloads\Nouveau dossier\outline.png"
       inkscape:export-xdpi="96"
       inkscape:export-ydpi="96"
       inkscape:connector-curvature="0" />
    <path
       d="m 54.982949,38.06819 a 15.24,15.24 0 1 0 0,30.48 15.24,15.24 0 1 0 0,-30.48 z"
       style="fill:none;stroke:#333333;stroke-width:0.18520834"
       id="path1906"
       inkscape:export-filename="C:\Users\afx\Downloads\Nouveau dossier\outline.png"
       inkscape:export-xdpi="96"
       inkscape:export-ydpi="96"
       inkscape:connector-curvature="0" />
    <path
       d="m 54.982949,70.83419 a 15.24,15.24 0 1 0 0,30.48 15.24,15.24 0 1 0 0,-30.48 z"
       style="fill:none;stroke:#333333;stroke-width:0.18520834"
       id="path1908"
       inkscape:export-filename="C:\Users\afx\Downloads\Nouveau dossier\outline.png"
       inkscape:export-xdpi="96"
       inkscape:export-ydpi="96"
       inkscape:connector-curvature="0" />
    <path
       d="m 54.982949,104.10819 a 15.24,15.24 0 1 0 0,30.48 15.24,15.24 0 1 0 0,-30.48 z"
       style="fill:none;stroke:#333333;stroke-width:0.18520834"
       id="path1910"
       inkscape:export-filename="C:\Users\afx\Downloads\Nouveau dossier\outline.png"
       inkscape:export-xdpi="96"
       inkscape:export-ydpi="96"
       inkscape:connector-curvature="0" />
    <path
       d="m 54.982949,137.38219 a 15.24,15.24 0 1 0 0,30.48 15.240001,15.240001 0 1 0 0,-30.48 z"
       style="fill:none;stroke:#333333;stroke-width:0.18520834"
       id="path1912"
       inkscape:export-filename="C:\Users\afx\Downloads\Nouveau dossier\outline.png"
       inkscape:export-xdpi="96"
       inkscape:export-ydpi="96"
       inkscape:connector-curvature="0" />
    <path
       d="m 54.982949,171.67219 a 15.24,15.24 0 1 0 0,30.48 15.24,15.24 0 1 0 0,-30.48 z"
       style="fill:none;stroke:#333333;stroke-width:0.18520834"
       id="path1914"
       inkscape:export-filename="C:\Users\afx\Downloads\Nouveau dossier\outline.png"
       inkscape:export-xdpi="96"
       inkscape:export-ydpi="96"
       inkscape:connector-curvature="0" />
    <path
       d="m 91.558949,4.2861872 a 15.24,15.24 0 1 0 0,30.4799998 15.24,15.24 0 1 0 0,-30.4799998 z"
       style="fill:none;stroke:#333333;stroke-width:0.18520834"
       id="path1918"
       inkscape:export-filename="C:\Users\afx\Downloads\Nouveau dossier\outline.png"
       inkscape:export-xdpi="96"
       inkscape:export-ydpi="96"
       inkscape:connector-curvature="0" />
    <path
       d="m 91.558949,38.06819 a 15.24,15.24 0 1 0 0,30.48 15.24,15.24 0 1 0 0,-30.48 z"
       style="fill:none;stroke:#333333;stroke-width:0.18520834"
       id="path1920"
       inkscape:export-filename="C:\Users\afx\Downloads\Nouveau dossier\outline.png"
       inkscape:export-xdpi="96"
       inkscape:export-ydpi="96"
       inkscape:connector-curvature="0" />
    <path
       d="m 91.558949,70.83419 a 15.24,15.24 0 1 0 0,30.48 15.24,15.24 0 1 0 0,-30.48 z"
       style="fill:none;stroke:#333333;stroke-width:0.18520834"
       id="path1922"
       inkscape:export-filename="C:\Users\afx\Downloads\Nouveau dossier\outline.png"
       inkscape:export-xdpi="96"
       inkscape:export-ydpi="96"
       inkscape:connector-curvature="0" />
    <path
       d="m 91.558949,104.10819 a 15.24,15.24 0 1 0 0,30.48 15.24,15.24 0 1 0 0,-30.48 z"
       style="fill:none;stroke:#333333;stroke-width:0.18520834"
       id="path1924"
       inkscape:export-filename="C:\Users\afx\Downloads\Nouveau dossier\outline.png"
       inkscape:export-xdpi="96"
       inkscape:export-ydpi="96"
       inkscape:connector-curvature="0" />
    <path
       d="m 91.558949,137.38219 a 15.24,15.24 0 1 0 0,30.48 15.240001,15.240001 0 1 0 0,-30.48 z"
       style="fill:none;stroke:#333333;stroke-width:0.18520834"
       id="path1926"
       inkscape:export-filename="C:\Users\afx\Downloads\Nouveau dossier\outline.png"
       inkscape:export-xdpi="96"
       inkscape:export-ydpi="96"
       inkscape:connector-curvature="0" />
    <path
       d="m 91.558949,171.67219 a 15.24,15.24 0 1 0 0,30.48 15.24,15.24 0 1 0 0,-30.48 z"
       style="fill:none;stroke:#333333;stroke-width:0.18520834"
       id="path1928"
       inkscape:export-filename="C:\Users\afx\Downloads\Nouveau dossier\outline.png"
       inkscape:export-xdpi="96"
       inkscape:export-ydpi="96"
       inkscape:connector-curvature="0" />
    <path
       d="m 127.88095,5.5561872 a 15.24,15.24 0 1 0 0,30.4799998 15.240001,15.240001 0 1 0 0,-30.4799998 z"
       style="fill:none;stroke:#333333;stroke-width:0.18520834"
       id="path1930"
       inkscape:export-filename="C:\Users\afx\Downloads\Nouveau dossier\outline.png"
       inkscape:export-xdpi="96"
       inkscape:export-ydpi="96"
       inkscape:connector-curvature="0" />
    <path
       d="m 127.88095,38.06819 a 15.24,15.24 0 1 0 0,30.48 15.24,15.24 0 1 0 0,-30.48 z"
       style="fill:none;stroke:#333333;stroke-width:0.18520834"
       id="path1932"
       inkscape:export-filename="C:\Users\afx\Downloads\Nouveau dossier\outline.png"
       inkscape:export-xdpi="96"
       inkscape:export-ydpi="96"
       inkscape:connector-curvature="0" />
    <path
       d="m 127.88095,70.83419 a 15.24,15.24 0 1 0 0,30.48 15.24,15.24 0 1 0 0,-30.48 z"
       style="fill:none;stroke:#333333;stroke-width:0.18520834"
       id="path1934"
       inkscape:export-filename="C:\Users\afx\Downloads\Nouveau dossier\outline.png"
       inkscape:export-xdpi="96"
       inkscape:export-ydpi="96"
       inkscape:connector-curvature="0" />
    <path
       d="m 127.88095,104.10819 a 15.24,15.24 0 1 0 0,30.48 15.24,15.24 0 1 0 0,-30.48 z"
       style="fill:none;stroke:#333333;stroke-width:0.18520834"
       id="path1936"
       inkscape:export-filename="C:\Users\afx\Downloads\Nouveau dossier\outline.png"
       inkscape:export-xdpi="96"
       inkscape:export-ydpi="96"
       inkscape:connector-curvature="0" />
    <path
       d="m 127.88095,137.38219 a 15.24,15.24 0 1 0 0,30.48 15.240001,15.240001 0 1 0 0,-30.48 z"
       style="fill:none;stroke:#333333;stroke-width:0.18520834"
       id="path1938"
       inkscape:export-filename="C:\Users\afx\Downloads\Nouveau dossier\outline.png"
       inkscape:export-xdpi="96"
       inkscape:export-ydpi="96"
       inkscape:connector-curvature="0" />
    <path
       d="m 127.88095,171.67219 a 15.24,15.24 0 1 0 0,30.48 15.24,15.24 0 1 0 0,-30.48 z"
       style="fill:none;stroke:#333333;stroke-width:0.18520834"
       id="path1940"
       inkscape:export-filename="C:\Users\afx\Downloads\Nouveau dossier\outline.png"
       inkscape:export-xdpi="96"
       inkscape:export-ydpi="96"
       inkscape:connector-curvature="0" />
    <path
       d="m 164.45695,4.2861872 a 15.24,15.24 0 1 0 0,30.4799998 15.24,15.24 0 1 0 0,-30.4799998 z"
       style="fill:none;stroke:#333333;stroke-width:0.18520834"
       id="path1946"
       inkscape:export-filename="C:\Users\afx\Downloads\Nouveau dossier\outline.png"
       inkscape:export-xdpi="96"
       inkscape:export-ydpi="96"
       inkscape:connector-curvature="0" />
    <path
       d="m 164.45695,38.06819 a 15.24,15.24 0 1 0 0,30.48 15.24,15.24 0 1 0 0,-30.48 z"
       style="fill:none;stroke:#333333;stroke-width:0.18520834"
       id="path1948"
       inkscape:export-filename="C:\Users\afx\Downloads\Nouveau dossier\outline.png"
       inkscape:export-xdpi="96"
       inkscape:export-ydpi="96"
       inkscape:connector-curvature="0" />
    <path
       d="m 164.45695,70.83419 a 15.24,15.24 0 1 0 0,30.48 15.24,15.24 0 1 0 0,-30.48 z"
       style="fill:none;stroke:#333333;stroke-width:0.18520834"
       id="path1950"
       inkscape:export-filename="C:\Users\afx\Downloads\Nouveau dossier\outline.png"
       inkscape:export-xdpi="96"
       inkscape:export-ydpi="96"
       inkscape:connector-curvature="0" />
    <path
       d="m 164.45695,104.10819 a 15.24,15.24 0 1 0 0,30.48 15.24,15.24 0 1 0 0,-30.48 z"
       style="fill:none;stroke:#333333;stroke-width:0.18520834"
       id="path1952"
       inkscape:export-filename="C:\Users\afx\Downloads\Nouveau dossier\outline.png"
       inkscape:export-xdpi="96"
       inkscape:export-ydpi="96"
       inkscape:connector-curvature="0" />
    <path
       d="m 164.45695,137.38219 a 15.24,15.24 0 1 0 0,30.48 15.240001,15.240001 0 1 0 0,-30.48 z"
       style="fill:none;stroke:#333333;stroke-width:0.18520834"
       id="path1954"
       inkscape:export-filename="C:\Users\afx\Downloads\Nouveau dossier\outline.png"
       inkscape:export-xdpi="96"
       inkscape:export-ydpi="96"
       inkscape:connector-curvature="0" />
    <path
       d="m 164.45695,171.67219 a 15.24,15.24 0 1 0 0,30.48 15.24,15.24 0 1 0 0,-30.48 z"
       style="fill:none;stroke:#333333;stroke-width:0.18520834"
       id="path1956"
       inkscape:export-filename="C:\Users\afx\Downloads\Nouveau dossier\outline.png"
       inkscape:export-xdpi="96"
       inkscape:export-ydpi="96"
       inkscape:connector-curvature="0" />
    <path
       d="m 201.03295,4.2861872 a 15.24,15.24 0 1 0 0,30.4799998 15.24,15.24 0 1 0 0,-30.4799998 z"
       style="fill:none;stroke:#333333;stroke-width:0.18520834"
       id="path1960"
       inkscape:export-filename="C:\Users\afx\Downloads\Nouveau dossier\outline.png"
       inkscape:export-xdpi="96"
       inkscape:export-ydpi="96"
       inkscape:connector-curvature="0" />
    <path
       d="m 201.03295,38.06819 a 15.24,15.24 0 1 0 0,30.48 15.24,15.24 0 1 0 0,-30.48 z"
       style="fill:none;stroke:#333333;stroke-width:0.18520834"
       id="path1962"
       inkscape:export-filename="C:\Users\afx\Downloads\Nouveau dossier\outline.png"
       inkscape:export-xdpi="96"
       inkscape:export-ydpi="96"
       inkscape:connector-curvature="0" />
    <path
       d="m 201.03295,70.83419 a 15.24,15.24 0 1 0 0,30.48 15.24,15.24 0 1 0 0,-30.48 z"
       style="fill:none;stroke:#333333;stroke-width:0.18520834"
       id="path1964"
       inkscape:export-filename="C:\Users\afx\Downloads\Nouveau dossier\outline.png"
       inkscape:export-xdpi="96"
       inkscape:export-ydpi="96"
       inkscape:connector-curvature="0" />
    <path
       d="m 201.03295,104.10819 a 15.24,15.24 0 1 0 0,30.48 15.24,15.24 0 1 0 0,-30.48 z"
       style="fill:none;stroke:#333333;stroke-width:0.18520834"
       id="path1966"
       inkscape:export-filename="C:\Users\afx\Downloads\Nouveau dossier\outline.png"
       inkscape:export-xdpi="96"
       inkscape:export-ydpi="96"
       inkscape:connector-curvature="0" />
    <path
       d="m 201.03295,137.38219 a 15.24,15.24 0 1 0 0,30.48 15.240001,15.240001 0 1 0 0,-30.48 z"
       style="fill:none;stroke:#333333;stroke-width:0.18520834"
       id="path1968"
       inkscape:export-filename="C:\Users\afx\Downloads\Nouveau dossier\outline.png"
       inkscape:export-xdpi="96"
       inkscape:export-ydpi="96"
       inkscape:connector-curvature="0" />
    <path
       d="m 201.03295,171.67219 a 15.24,15.24 0 1 0 0,30.48 15.24,15.24 0 1 0 0,-30.48 z"
       style="fill:none;stroke:#333333;stroke-width:0.18520834"
       id="path1970"
       inkscape:export-filename="C:\Users\afx\Downloads\Nouveau dossier\outline.png"
       inkscape:export-xdpi="96"
       inkscape:export-ydpi="96"
       inkscape:connector-curvature="0" />
    <path
       d="m 237.35495,4.0321872 a 15.240001,15.240001 0 1 0 0,30.4799998 15.24,15.24 0 1 0 0,-30.4799998 z"
       style="fill:none;stroke:#333333;stroke-width:0.18520834"
       id="path1972"
       inkscape:export-filename="C:\Users\afx\Downloads\Nouveau dossier\outline.png"
       inkscape:export-xdpi="96"
       inkscape:export-ydpi="96"
       inkscape:connector-curvature="0" />
    <path
       d="m 237.35495,36.544187 a 15.240002,15.240002 0 1 0 0,30.480003 15.240002,15.240002 0 1 0 0,-30.480003 z"
       style="fill:none;stroke:#333333;stroke-width:0.18520834"
       id="path1974"
       inkscape:export-filename="C:\Users\afx\Downloads\Nouveau dossier\outline.png"
       inkscape:export-xdpi="96"
       inkscape:export-ydpi="96"
       inkscape:connector-curvature="0" />
    <path
       d="m 237.35495,69.31019 a 15.24,15.24 0 1 0 0,30.48 15.24,15.24 0 1 0 0,-30.48 z"
       style="fill:none;stroke:#333333;stroke-width:0.18520834"
       id="path1976"
       inkscape:export-filename="C:\Users\afx\Downloads\Nouveau dossier\outline.png"
       inkscape:export-xdpi="96"
       inkscape:export-ydpi="96"
       inkscape:connector-curvature="0" />
    <path
       d="m 237.35495,102.58419 a 15.240001,15.240001 0 1 0 0,30.48 15.240002,15.240002 0 1 0 0,-30.48 z"
       style="fill:none;stroke:#333333;stroke-width:0.18520834"
       id="path1978"
       inkscape:export-filename="C:\Users\afx\Downloads\Nouveau dossier\outline.png"
       inkscape:export-xdpi="96"
       inkscape:export-ydpi="96"
       inkscape:connector-curvature="0" />
    <path
       d="m 237.35495,135.85819 a 15.24,15.24 0 1 0 0,30.48 15.240001,15.240001 0 1 0 0,-30.48 z"
       style="fill:none;stroke:#333333;stroke-width:0.18520834"
       id="path1980"
       inkscape:export-filename="C:\Users\afx\Downloads\Nouveau dossier\outline.png"
       inkscape:export-xdpi="96"
       inkscape:export-ydpi="96"
       inkscape:connector-curvature="0" />
    <path
       d="m 237.35495,170.14819 a 15.24,15.24 0 1 0 0,30.48 15.24,15.24 0 1 0 0,-30.48 z"
       style="fill:none;stroke:#333333;stroke-width:0.18520834"
       id="path1982"
       inkscape:export-filename="C:\Users\afx\Downloads\Nouveau dossier\outline.png"
       inkscape:export-xdpi="96"
       inkscape:export-ydpi="96"
       inkscape:connector-curvature="0" />
    <path
       d="m 18.152948,4.2861872 a 15.24,15.24 0 1 0 0,30.4799998 15.24,15.24 0 1 0 0,-30.4799998 z"
       style="fill:none;stroke:#333333;stroke-width:0.18520834"
       id="path2182"
       inkscape:export-filename="C:\Users\afx\Downloads\Nouveau dossier\outline.png"
       inkscape:export-xdpi="96"
       inkscape:export-ydpi="96"
       inkscape:connector-curvature="0" />
  </g>
</svg>
