<?xml version="1.0" encoding="UTF-8" standalone="no"?>
<!-- Created with Inkscape (http://www.inkscape.org/) -->

<svg
   xmlns:dc="http://purl.org/dc/elements/1.1/"
   xmlns:cc="http://creativecommons.org/ns#"
   xmlns:rdf="http://www.w3.org/1999/02/22-rdf-syntax-ns#"
   xmlns:svg="http://www.w3.org/2000/svg"
   xmlns="http://www.w3.org/2000/svg"
   xmlns:sodipodi="http://sodipodi.sourceforge.net/DTD/sodipodi-0.dtd"
   xmlns:inkscape="http://www.inkscape.org/namespaces/inkscape"
   width="297mm"
   height="210mm"
   viewBox="0 0 297 210"
   version="1.1"
   id="SVGRoot"
   sodipodi:docname="2.svg"
   inkscape:version="0.92.3 (2405546, 2018-03-11)">
  <sodipodi:namedview
     id="base"
     pagecolor="#ffffff"
     bordercolor="#666666"
     borderopacity="1.0"
     inkscape:pageopacity="0.0"
     inkscape:pageshadow="2"
     inkscape:zoom="0.70000001"
     inkscape:cx="578.88531"
     inkscape:cy="368.57321"
     inkscape:document-units="mm"
     inkscape:current-layer="layer1"
     showgrid="false"
     inkscape:window-width="1920"
     inkscape:window-height="1001"
     inkscape:window-x="-9"
     inkscape:window-y="-9"
     inkscape:window-maximized="1"
     inkscape:measure-start="45.6029,520.817"
     inkscape:measure-end="45.6028,472.573" />
  <defs
     id="defs164" />
  <metadata
     id="metadata167">
    <rdf:RDF>
      <cc:Work
         rdf:about="">
        <dc:format>image/svg+xml</dc:format>
        <dc:type
           rdf:resource="http://purl.org/dc/dcmitype/StillImage" />
        <dc:title />
      </cc:Work>
    </rdf:RDF>
  </metadata>
  <g
     id="layer1"
     inkscape:groupmode="layer"
     inkscape:label="Calque 1">
    <path
       d="M 9.7572256,2.0788447 C 115.88105,41.732089 197.6688,74.88671 286.44861,109.90847 l 2.73731,-7.02396 v 0 l 4.74092,1.84759 -2.73731,7.02396 -5.53382,14.1998 v 0 l -2.73724,7.02378 -4.74093,-1.84758 2.73725,-7.02378 v 0 L 4.22338,16.278639 Z"
       style="fill:none;stroke:#333333;stroke-width:0.18520834"
       id="path2078"
       inkscape:export-filename="C:\Users\afx\Downloads\Nouveau dossier\outline.png"
       inkscape:export-xdpi="96"
       inkscape:export-ydpi="96"
       inkscape:connector-curvature="0"
       sodipodi:nodetypes="cccccccccccccc" />
    <path
       inkscape:connector-curvature="0"
       d="m 247.85256,45.899658 h 17.78 v -6.096 h -17.78 z"
       style="fill:none;stroke:#333333;stroke-width:0.18520834"
       id="path2094-0"
       inkscape:export-filename="C:\Users\afx\Downloads\Nouveau dossier\outline.png"
       inkscape:export-xdpi="96"
       inkscape:export-ydpi="96" />
    <path
       inkscape:connector-curvature="0"
       d="m 234.7269,53.382312 h 44.23828 V 13.287375 h -44.23834 z"
       style="fill:none;stroke:#333333;stroke-width:0.18520834"
       id="path2094-6"
       inkscape:export-filename="C:\Users\afx\Downloads\Nouveau dossier\outline.png"
       inkscape:export-xdpi="96"
       inkscape:export-ydpi="96"
       sodipodi:nodetypes="ccccc" />
    <path
       d="m 15.18311,174.22181 c 0,0 0,-3.048 0,-3.048 0,0 0,0 180.7767,0 0,0 0,0 0,0 0,3.048 0,3.048 0,3.048 0,0 -180.7767,0 -180.7767,0 z"
       style="fill:none;stroke:#333333;stroke-width:0.18520834"
       id="path1916"
       inkscape:export-filename="C:\Users\afx\Downloads\Nouveau dossier\outline.png"
       inkscape:export-xdpi="96"
       inkscape:export-ydpi="96"
       inkscape:connector-curvature="0" />
    <path
       d="m 15.18311,156.44181 c 0,0 0,-3.048 0,-3.048 0,0 0,0 180.7767,0 0,0 0,0 0,0 0,3.048 0,3.048 0,3.048 0,0 -180.7767,0 -180.7767,0 z"
       style="fill:none;stroke:#333333;stroke-width:0.18520834"
       id="path1942"
       inkscape:export-filename="C:\Users\afx\Downloads\Nouveau dossier\outline.png"
       inkscape:export-xdpi="96"
       inkscape:export-ydpi="96"
       inkscape:connector-curvature="0" />
    <path
       d="m 15.18311,165.07781 c 0,0 0,-3.048 0,-3.048 0,0 0,0 180.7767,0 0,0 0,0 0,0 0,3.048 0,3.048 0,3.048 0,0 -180.7767,0 -180.7767,0 z"
       style="fill:none;stroke:#333333;stroke-width:0.18520834"
       id="path1944"
       inkscape:export-filename="C:\Users\afx\Downloads\Nouveau dossier\outline.png"
       inkscape:export-xdpi="96"
       inkscape:export-ydpi="96"
       inkscape:connector-curvature="0" />
    <path
       d="m 15.18311,147.04381 c 0,0 0,-3.04798 0,-3.04798 0,0 0,0 180.7767,0 0,0 0,0 0,0 0,3.04798 0,3.04798 0,3.04798 0,0 -180.7767,0 -180.7767,0 z"
       style="fill:none;stroke:#333333;stroke-width:0.18520834"
       id="path1958"
       inkscape:export-filename="C:\Users\afx\Downloads\Nouveau dossier\outline.png"
       inkscape:export-xdpi="96"
       inkscape:export-ydpi="96"
       inkscape:connector-curvature="0" />
    <path
       d="m 15.18311,128.24783 c 0,0 0,-3.048 0,-3.048 0,0 0,0 180.7767,0 0,0 0,0 0,0 0,3.048 0,3.048 0,3.048 0,0 -180.7767,0 -180.7767,0 z"
       style="fill:none;stroke:#333333;stroke-width:0.18520834"
       id="path1984"
       inkscape:export-filename="C:\Users\afx\Downloads\Nouveau dossier\outline.png"
       inkscape:export-xdpi="96"
       inkscape:export-ydpi="96"
       inkscape:connector-curvature="0" />
    <path
       d="m 15.18311,137.89983 c 0,0 0,-3.048 0,-3.048 0,0 0,0 180.7767,0 0,0 0,0 0,0 0,3.048 0,3.048 0,3.048 0,0 -180.7767,0 -180.7767,0 z"
       style="fill:none;stroke:#333333;stroke-width:0.18520834"
       id="path1986"
       inkscape:export-filename="C:\Users\afx\Downloads\Nouveau dossier\outline.png"
       inkscape:export-xdpi="96"
       inkscape:export-ydpi="96"
       inkscape:connector-curvature="0" />
    <path
       d="m 15.18311,183.11181 c 0,0 0,-3.048 0,-3.048 0,0 0,0 180.7767,0 0,0 0,0 0,0 0,3.048 0,3.048 0,3.048 0,0 -180.7767,0 -180.7767,0 z"
       style="fill:none;stroke:#333333;stroke-width:0.18520834"
       id="path1988"
       inkscape:export-filename="C:\Users\afx\Downloads\Nouveau dossier\outline.png"
       inkscape:export-xdpi="96"
       inkscape:export-ydpi="96"
       inkscape:connector-curvature="0" />
    <path
       d="m 15.18311,118.59582 c 0,0 0,-3.048 0,-3.048 0,0 0,0 180.7767,0 0,0 0,0 0,0 0,3.048 0,3.048 0,3.048 0,0 -180.7767,0 -180.7767,0 z"
       style="fill:none;stroke:#333333;stroke-width:0.18520834"
       id="path1990"
       inkscape:export-filename="C:\Users\afx\Downloads\Nouveau dossier\outline.png"
       inkscape:export-xdpi="96"
       inkscape:export-ydpi="96"
       inkscape:connector-curvature="0" />
  </g>
</svg>
