<?xml version="1.0" encoding="UTF-8" standalone="no"?>
<!-- Created with Inkscape (http://www.inkscape.org/) -->

<svg
   xmlns:dc="http://purl.org/dc/elements/1.1/"
   xmlns:cc="http://creativecommons.org/ns#"
   xmlns:rdf="http://www.w3.org/1999/02/22-rdf-syntax-ns#"
   xmlns:svg="http://www.w3.org/2000/svg"
   xmlns="http://www.w3.org/2000/svg"
   xmlns:sodipodi="http://sodipodi.sourceforge.net/DTD/sodipodi-0.dtd"
   xmlns:inkscape="http://www.inkscape.org/namespaces/inkscape"
   width="297mm"
   height="210mm"
   viewBox="0 0 297 210"
   version="1.1"
   id="SVGRoot"
   sodipodi:docname="4.svg"
   inkscape:version="0.92.3 (2405546, 2018-03-11)">
  <sodipodi:namedview
     id="base"
     pagecolor="#ffffff"
     bordercolor="#666666"
     borderopacity="1.0"
     inkscape:pageopacity="0.0"
     inkscape:pageshadow="2"
     inkscape:zoom="0.7"
     inkscape:cx="343.1882"
     inkscape:cy="358.25831"
     inkscape:document-units="mm"
     inkscape:current-layer="layer1"
     showgrid="false"
     inkscape:window-width="1920"
     inkscape:window-height="1001"
     inkscape:window-x="-9"
     inkscape:window-y="-9"
     inkscape:window-maximized="1"
     inkscape:measure-start="592.5,545.714"
     inkscape:measure-end="592.5,523.571" />
  <defs
     id="defs164" />
  <metadata
     id="metadata167">
    <rdf:RDF>
      <cc:Work
         rdf:about="">
        <dc:format>image/svg+xml</dc:format>
        <dc:type
           rdf:resource="http://purl.org/dc/dcmitype/StillImage" />
        <dc:title />
      </cc:Work>
    </rdf:RDF>
  </metadata>
  <g
     id="layer1"
     inkscape:groupmode="layer"
     inkscape:label="Calque 1">
    <path
       d="m 38.568692,15.526762 a 12.7,12.7 0 1 0 0,25.4 12.7,12.7 0 1 0 0,-25.4 z"
       style="fill:none;stroke:#333333;stroke-width:0.18520834"
       id="path1992"
       inkscape:export-filename="C:\Users\afx\Downloads\Nouveau dossier\outline.png"
       inkscape:export-xdpi="96"
       inkscape:export-ydpi="96"
       inkscape:connector-curvature="0" />
    <path
       d="m 38.568692,46.006762 a 12.7,12.7 0 1 0 0,25.4 12.7,12.7 0 1 0 0,-25.4 z"
       style="fill:none;stroke:#333333;stroke-width:0.18520834"
       id="path1994"
       inkscape:export-filename="C:\Users\afx\Downloads\Nouveau dossier\outline.png"
       inkscape:export-xdpi="96"
       inkscape:export-ydpi="96"
       inkscape:connector-curvature="0" />
    <path
       d="m 38.568692,76.486762 a 12.7,12.7 0 1 0 0,25.399998 12.7,12.7 0 1 0 0,-25.399998 z"
       style="fill:none;stroke:#333333;stroke-width:0.18520834"
       id="path1996"
       inkscape:export-filename="C:\Users\afx\Downloads\Nouveau dossier\outline.png"
       inkscape:export-xdpi="96"
       inkscape:export-ydpi="96"
       inkscape:connector-curvature="0" />
    <path
       d="m 38.568692,106.96676 a 12.7,12.7 0 1 0 0,25.4 12.7,12.7 0 1 0 0,-25.4 z"
       style="fill:none;stroke:#333333;stroke-width:0.18520834"
       id="path1998"
       inkscape:export-filename="C:\Users\afx\Downloads\Nouveau dossier\outline.png"
       inkscape:export-xdpi="96"
       inkscape:export-ydpi="96"
       inkscape:connector-curvature="0" />
    <path
       d="m 38.568692,137.44676 a 12.7,12.7 0 1 0 0,25.4 12.7,12.7 0 1 0 0,-25.4 z"
       style="fill:none;stroke:#333333;stroke-width:0.18520834"
       id="path2000"
       inkscape:export-filename="C:\Users\afx\Downloads\Nouveau dossier\outline.png"
       inkscape:export-xdpi="96"
       inkscape:export-ydpi="96"
       inkscape:connector-curvature="0" />
    <path
       d="m 38.568692,167.92676 a 12.7,12.7 0 1 0 0,25.4 12.7,12.7 0 1 0 0,-25.4 z"
       style="fill:none;stroke:#333333;stroke-width:0.18520834"
       id="path2002"
       inkscape:export-filename="C:\Users\afx\Downloads\Nouveau dossier\outline.png"
       inkscape:export-xdpi="96"
       inkscape:export-ydpi="96"
       inkscape:connector-curvature="0" />
    <path
       d="m 74.89069,15.526762 a 12.7,12.7 0 1 0 0,25.4 12.7,12.7 0 1 0 0,-25.4 z"
       style="fill:none;stroke:#333333;stroke-width:0.18520834"
       id="path2004"
       inkscape:export-filename="C:\Users\afx\Downloads\Nouveau dossier\outline.png"
       inkscape:export-xdpi="96"
       inkscape:export-ydpi="96"
       inkscape:connector-curvature="0" />
    <path
       d="m 74.89069,46.006762 a 12.7,12.7 0 1 0 0,25.4 12.7,12.7 0 1 0 0,-25.4 z"
       style="fill:none;stroke:#333333;stroke-width:0.18520834"
       id="path2006"
       inkscape:export-filename="C:\Users\afx\Downloads\Nouveau dossier\outline.png"
       inkscape:export-xdpi="96"
       inkscape:export-ydpi="96"
       inkscape:connector-curvature="0" />
    <path
       d="m 74.89069,76.486762 a 12.7,12.7 0 1 0 0,25.399998 12.7,12.7 0 1 0 0,-25.399998 z"
       style="fill:none;stroke:#333333;stroke-width:0.18520834"
       id="path2008"
       inkscape:export-filename="C:\Users\afx\Downloads\Nouveau dossier\outline.png"
       inkscape:export-xdpi="96"
       inkscape:export-ydpi="96"
       inkscape:connector-curvature="0" />
    <path
       d="m 74.89069,106.96676 a 12.7,12.7 0 1 0 0,25.4 12.7,12.7 0 1 0 0,-25.4 z"
       style="fill:none;stroke:#333333;stroke-width:0.18520834"
       id="path2010"
       inkscape:export-filename="C:\Users\afx\Downloads\Nouveau dossier\outline.png"
       inkscape:export-xdpi="96"
       inkscape:export-ydpi="96"
       inkscape:connector-curvature="0" />
    <path
       d="m 74.89069,137.44676 a 12.7,12.7 0 1 0 0,25.4 12.7,12.7 0 1 0 0,-25.4 z"
       style="fill:none;stroke:#333333;stroke-width:0.18520834"
       id="path2012"
       inkscape:export-filename="C:\Users\afx\Downloads\Nouveau dossier\outline.png"
       inkscape:export-xdpi="96"
       inkscape:export-ydpi="96"
       inkscape:connector-curvature="0" />
    <path
       d="m 74.89069,167.92676 a 12.7,12.7 0 1 0 0,25.4 12.7,12.7 0 1 0 0,-25.4 z"
       style="fill:none;stroke:#333333;stroke-width:0.18520834"
       id="path2014"
       inkscape:export-filename="C:\Users\afx\Downloads\Nouveau dossier\outline.png"
       inkscape:export-xdpi="96"
       inkscape:export-ydpi="96"
       inkscape:connector-curvature="0" />
    <path
       d="m 111.46669,15.526762 a 12.7,12.7 0 1 0 0,25.4 12.7,12.7 0 1 0 0,-25.4 z"
       style="fill:none;stroke:#333333;stroke-width:0.18520834"
       id="path2016"
       inkscape:export-filename="C:\Users\afx\Downloads\Nouveau dossier\outline.png"
       inkscape:export-xdpi="96"
       inkscape:export-ydpi="96"
       inkscape:connector-curvature="0" />
    <path
       d="m 111.46669,46.006762 a 12.7,12.7 0 1 0 0,25.4 12.7,12.7 0 1 0 0,-25.4 z"
       style="fill:none;stroke:#333333;stroke-width:0.18520834"
       id="path2018"
       inkscape:export-filename="C:\Users\afx\Downloads\Nouveau dossier\outline.png"
       inkscape:export-xdpi="96"
       inkscape:export-ydpi="96"
       inkscape:connector-curvature="0" />
    <path
       d="m 111.46669,76.486762 a 12.7,12.7 0 1 0 0,25.399998 12.7,12.7 0 1 0 0,-25.399998 z"
       style="fill:none;stroke:#333333;stroke-width:0.18520834"
       id="path2020"
       inkscape:export-filename="C:\Users\afx\Downloads\Nouveau dossier\outline.png"
       inkscape:export-xdpi="96"
       inkscape:export-ydpi="96"
       inkscape:connector-curvature="0" />
    <path
       d="m 111.46669,106.96676 a 12.7,12.7 0 1 0 0,25.4 12.7,12.7 0 1 0 0,-25.4 z"
       style="fill:none;stroke:#333333;stroke-width:0.18520834"
       id="path2022"
       inkscape:export-filename="C:\Users\afx\Downloads\Nouveau dossier\outline.png"
       inkscape:export-xdpi="96"
       inkscape:export-ydpi="96"
       inkscape:connector-curvature="0" />
    <path
       d="m 111.46669,137.44676 a 12.7,12.7 0 1 0 0,25.4 12.7,12.7 0 1 0 0,-25.4 z"
       style="fill:none;stroke:#333333;stroke-width:0.18520834"
       id="path2024"
       inkscape:export-filename="C:\Users\afx\Downloads\Nouveau dossier\outline.png"
       inkscape:export-xdpi="96"
       inkscape:export-ydpi="96"
       inkscape:connector-curvature="0" />
    <path
       d="m 111.46669,167.92676 a 12.7,12.7 0 1 0 0,25.4 12.7,12.7 0 1 0 0,-25.4 z"
       style="fill:none;stroke:#333333;stroke-width:0.18520834"
       id="path2026"
       inkscape:export-filename="C:\Users\afx\Downloads\Nouveau dossier\outline.png"
       inkscape:export-xdpi="96"
       inkscape:export-ydpi="96"
       inkscape:connector-curvature="0" />
    <path
       d="m 147.78869,15.526762 a 12.7,12.7 0 1 0 0,25.4 12.7,12.7 0 1 0 0,-25.4 z"
       style="fill:none;stroke:#333333;stroke-width:0.18520834"
       id="path2028"
       inkscape:export-filename="C:\Users\afx\Downloads\Nouveau dossier\outline.png"
       inkscape:export-xdpi="96"
       inkscape:export-ydpi="96"
       inkscape:connector-curvature="0" />
    <path
       d="m 147.78869,46.006762 a 12.7,12.7 0 1 0 0,25.4 12.7,12.7 0 1 0 0,-25.4 z"
       style="fill:none;stroke:#333333;stroke-width:0.18520834"
       id="path2030"
       inkscape:export-filename="C:\Users\afx\Downloads\Nouveau dossier\outline.png"
       inkscape:export-xdpi="96"
       inkscape:export-ydpi="96"
       inkscape:connector-curvature="0" />
    <path
       d="m 147.78869,76.486762 a 12.7,12.7 0 1 0 0,25.399998 12.7,12.7 0 1 0 0,-25.399998 z"
       style="fill:none;stroke:#333333;stroke-width:0.18520834"
       id="path2032"
       inkscape:export-filename="C:\Users\afx\Downloads\Nouveau dossier\outline.png"
       inkscape:export-xdpi="96"
       inkscape:export-ydpi="96"
       inkscape:connector-curvature="0" />
    <path
       d="m 147.78869,106.96676 a 12.7,12.7 0 1 0 0,25.4 12.7,12.7 0 1 0 0,-25.4 z"
       style="fill:none;stroke:#333333;stroke-width:0.18520834"
       id="path2034"
       inkscape:export-filename="C:\Users\afx\Downloads\Nouveau dossier\outline.png"
       inkscape:export-xdpi="96"
       inkscape:export-ydpi="96"
       inkscape:connector-curvature="0" />
    <path
       d="m 147.78869,137.44676 a 12.7,12.7 0 1 0 0,25.4 12.7,12.7 0 1 0 0,-25.4 z"
       style="fill:none;stroke:#333333;stroke-width:0.18520834"
       id="path2036"
       inkscape:export-filename="C:\Users\afx\Downloads\Nouveau dossier\outline.png"
       inkscape:export-xdpi="96"
       inkscape:export-ydpi="96"
       inkscape:connector-curvature="0" />
    <path
       d="m 147.78869,167.92676 a 12.7,12.7 0 1 0 0,25.4 12.7,12.7 0 1 0 0,-25.4 z"
       style="fill:none;stroke:#333333;stroke-width:0.18520834"
       id="path2038"
       inkscape:export-filename="C:\Users\afx\Downloads\Nouveau dossier\outline.png"
       inkscape:export-xdpi="96"
       inkscape:export-ydpi="96"
       inkscape:connector-curvature="0" />
    <path
       d="m 184.36469,15.526762 a 12.7,12.7 0 1 0 0,25.4 12.7,12.7 0 1 0 0,-25.4 z"
       style="fill:none;stroke:#333333;stroke-width:0.18520834"
       id="path2040"
       inkscape:export-filename="C:\Users\afx\Downloads\Nouveau dossier\outline.png"
       inkscape:export-xdpi="96"
       inkscape:export-ydpi="96"
       inkscape:connector-curvature="0" />
    <path
       d="m 184.36469,46.006762 a 12.7,12.7 0 1 0 0,25.4 12.7,12.7 0 1 0 0,-25.4 z"
       style="fill:none;stroke:#333333;stroke-width:0.18520834"
       id="path2042"
       inkscape:export-filename="C:\Users\afx\Downloads\Nouveau dossier\outline.png"
       inkscape:export-xdpi="96"
       inkscape:export-ydpi="96"
       inkscape:connector-curvature="0" />
    <path
       d="m 184.36469,76.486762 a 12.7,12.7 0 1 0 0,25.399998 12.7,12.7 0 1 0 0,-25.399998 z"
       style="fill:none;stroke:#333333;stroke-width:0.18520834"
       id="path2044"
       inkscape:export-filename="C:\Users\afx\Downloads\Nouveau dossier\outline.png"
       inkscape:export-xdpi="96"
       inkscape:export-ydpi="96"
       inkscape:connector-curvature="0" />
    <path
       d="m 184.36469,106.96676 a 12.7,12.7 0 1 0 0,25.4 12.7,12.7 0 1 0 0,-25.4 z"
       style="fill:none;stroke:#333333;stroke-width:0.18520834"
       id="path2046"
       inkscape:export-filename="C:\Users\afx\Downloads\Nouveau dossier\outline.png"
       inkscape:export-xdpi="96"
       inkscape:export-ydpi="96"
       inkscape:connector-curvature="0" />
    <path
       d="m 184.36469,137.44676 a 12.7,12.7 0 1 0 0,25.4 12.7,12.7 0 1 0 0,-25.4 z"
       style="fill:none;stroke:#333333;stroke-width:0.18520834"
       id="path2048"
       inkscape:export-filename="C:\Users\afx\Downloads\Nouveau dossier\outline.png"
       inkscape:export-xdpi="96"
       inkscape:export-ydpi="96"
       inkscape:connector-curvature="0" />
    <path
       d="m 184.36469,167.92676 a 12.7,12.7 0 1 0 0,25.4 12.7,12.7 0 1 0 0,-25.4 z"
       style="fill:none;stroke:#333333;stroke-width:0.18520834"
       id="path2050"
       inkscape:export-filename="C:\Users\afx\Downloads\Nouveau dossier\outline.png"
       inkscape:export-xdpi="96"
       inkscape:export-ydpi="96"
       inkscape:connector-curvature="0" />
    <path
       d="m 220.94069,15.526762 a 12.7,12.7 0 1 0 0,25.4 12.7,12.7 0 1 0 0,-25.4 z"
       style="fill:none;stroke:#333333;stroke-width:0.18520834"
       id="path2052"
       inkscape:export-filename="C:\Users\afx\Downloads\Nouveau dossier\outline.png"
       inkscape:export-xdpi="96"
       inkscape:export-ydpi="96"
       inkscape:connector-curvature="0" />
    <path
       d="m 220.94069,46.006762 a 12.7,12.7 0 1 0 0,25.4 12.7,12.7 0 1 0 0,-25.4 z"
       style="fill:none;stroke:#333333;stroke-width:0.18520834"
       id="path2054"
       inkscape:export-filename="C:\Users\afx\Downloads\Nouveau dossier\outline.png"
       inkscape:export-xdpi="96"
       inkscape:export-ydpi="96"
       inkscape:connector-curvature="0" />
    <path
       d="m 220.94069,76.486762 a 12.7,12.7 0 1 0 0,25.399998 12.7,12.7 0 1 0 0,-25.399998 z"
       style="fill:none;stroke:#333333;stroke-width:0.18520834"
       id="path2056"
       inkscape:export-filename="C:\Users\afx\Downloads\Nouveau dossier\outline.png"
       inkscape:export-xdpi="96"
       inkscape:export-ydpi="96"
       inkscape:connector-curvature="0" />
    <path
       d="m 220.94069,106.96676 a 12.7,12.7 0 1 0 0,25.4 12.7,12.7 0 1 0 0,-25.4 z"
       style="fill:none;stroke:#333333;stroke-width:0.18520834"
       id="path2058"
       inkscape:export-filename="C:\Users\afx\Downloads\Nouveau dossier\outline.png"
       inkscape:export-xdpi="96"
       inkscape:export-ydpi="96"
       inkscape:connector-curvature="0" />
    <path
       d="m 220.94069,137.44676 a 12.7,12.7 0 1 0 0,25.4 12.7,12.7 0 1 0 0,-25.4 z"
       style="fill:none;stroke:#333333;stroke-width:0.18520834"
       id="path2060"
       inkscape:export-filename="C:\Users\afx\Downloads\Nouveau dossier\outline.png"
       inkscape:export-xdpi="96"
       inkscape:export-ydpi="96"
       inkscape:connector-curvature="0" />
    <path
       d="m 220.94069,167.92676 a 12.7,12.7 0 1 0 0,25.4 12.7,12.7 0 1 0 0,-25.4 z"
       style="fill:none;stroke:#333333;stroke-width:0.18520834"
       id="path2062"
       inkscape:export-filename="C:\Users\afx\Downloads\Nouveau dossier\outline.png"
       inkscape:export-xdpi="96"
       inkscape:export-ydpi="96"
       inkscape:connector-curvature="0" />
    <path
       d="m 257.26269,15.526762 a 12.7,12.7 0 1 0 0,25.4 12.7,12.7 0 1 0 0,-25.4 z"
       style="fill:none;stroke:#333333;stroke-width:0.18520834"
       id="path2064"
       inkscape:export-filename="C:\Users\afx\Downloads\Nouveau dossier\outline.png"
       inkscape:export-xdpi="96"
       inkscape:export-ydpi="96"
       inkscape:connector-curvature="0" />
    <path
       d="m 257.26269,46.006762 a 12.7,12.7 0 1 0 0,25.4 12.7,12.7 0 1 0 0,-25.4 z"
       style="fill:none;stroke:#333333;stroke-width:0.18520834"
       id="path2066"
       inkscape:export-filename="C:\Users\afx\Downloads\Nouveau dossier\outline.png"
       inkscape:export-xdpi="96"
       inkscape:export-ydpi="96"
       inkscape:connector-curvature="0" />
    <path
       d="m 257.26269,76.486762 a 12.7,12.7 0 1 0 0,25.399998 12.7,12.7 0 1 0 0,-25.399998 z"
       style="fill:none;stroke:#333333;stroke-width:0.18520834"
       id="path2068"
       inkscape:export-filename="C:\Users\afx\Downloads\Nouveau dossier\outline.png"
       inkscape:export-xdpi="96"
       inkscape:export-ydpi="96"
       inkscape:connector-curvature="0" />
    <path
       d="m 257.26269,106.96676 a 12.7,12.7 0 1 0 0,25.4 12.7,12.7 0 1 0 0,-25.4 z"
       style="fill:none;stroke:#333333;stroke-width:0.18520834"
       id="path2070"
       inkscape:export-filename="C:\Users\afx\Downloads\Nouveau dossier\outline.png"
       inkscape:export-xdpi="96"
       inkscape:export-ydpi="96"
       inkscape:connector-curvature="0" />
    <path
       d="m 257.26269,137.44676 a 12.7,12.7 0 1 0 0,25.4 12.7,12.7 0 1 0 0,-25.4 z"
       style="fill:none;stroke:#333333;stroke-width:0.18520834"
       id="path2072"
       inkscape:export-filename="C:\Users\afx\Downloads\Nouveau dossier\outline.png"
       inkscape:export-xdpi="96"
       inkscape:export-ydpi="96"
       inkscape:connector-curvature="0" />
    <path
       d="m 257.26269,167.92676 a 12.7,12.7 0 1 0 0,25.4 12.7,12.7 0 1 0 0,-25.4 z"
       style="fill:none;stroke:#333333;stroke-width:0.18520834"
       id="path2074"
       inkscape:export-filename="C:\Users\afx\Downloads\Nouveau dossier\outline.png"
       inkscape:export-xdpi="96"
       inkscape:export-ydpi="96"
       inkscape:connector-curvature="0" />
    <path
       d="m 18.831291,9.8819614 c 0,0 258.063999,0 258.063999,0 0,0 0,0 0,5.8902006 0,0 0,0 0,0 5.33399,0 5.33399,0 5.33399,0 0,0 0,19.05 0,19.05 0,0 0,0 -5.33399,0 0,0 0,0 0,0 0,44.9084 0,44.9084 0,44.9084 0,0 5.3864,0 5.3864,0 0,0 0,0 0,19.05 0,0 0,0 0,0 -5.3864,0 -5.3864,0 -5.3864,0 0,0 0,44.957998 0,44.957998 0,0 0,0 5.3864,0 0,0 0,0 0,0 0,19.05 0,19.05 0,19.05 0,0 -5.3864,0 -5.3864,0 0,0 0,0 0,34.15091 0,0 0,0 0,0 -258.063999,0 -258.063999,0 -258.063999,0 0,0 0,-34.15091 0,-34.15091 0,0 0,0 -5.535599,0 0,0 0,0 0,0 0,-19.05 0,-19.05 0,-19.05 0,0 5.535599,0 5.535599,0 0,0 0,0 0,-44.957998 0,0 0,0 0,0 -5.535599,0 -5.535599,0 -5.535599,0 0,0 0,-19.05 0,-19.05 0,0 0,0 5.535599,0 0,0 0,0 0,0 0,-44.9084 0,-44.9084 0,-44.9084 0,0 -5.489598,0 -5.489598,0 0,0 0,0 0,-19.05 0,0 0,0 0,0 5.489598,0 5.489598,0 5.489598,0 0,0 0,-5.8902006 0,-5.8902006 z"
       style="fill:none;stroke:#333333;stroke-width:0.18520834"
       id="path2076"
       inkscape:export-filename="C:\Users\afx\Downloads\Nouveau dossier\outline.png"
       inkscape:export-xdpi="96"
       inkscape:export-ydpi="96"
       inkscape:connector-curvature="0" />
  </g>
</svg>
